<svg width="33" height="16" viewBox="0 0 33 16" fill="none" xmlns="http://www.w3.org/2000/svg">
<path opacity="0.35" d="M1.47246 4.46942C1.47246 2.8999 2.74481 1.62755 4.31433 1.62755H26.1748C27.7443 1.62755 29.0166 2.8999 29.0166 4.46941V12.3392C29.0166 13.9087 27.7443 15.181 26.1748 15.181H4.31432C2.74481 15.181 1.47246 13.9087 1.47246 12.3392V4.46942Z" stroke="black" stroke-width="1.31163"/>
<path opacity="0.4" d="M30.984 5.78107V11.0276C32.0395 10.5832 32.7259 9.54955 32.7259 8.40432C32.7259 7.2591 32.0395 6.22542 30.984 5.78107Z" fill="black"/>
<path d="M3.43994 5.34381C3.43994 4.37795 4.22292 3.59497 5.18878 3.59497H25.3004C26.2663 3.59497 27.0492 4.37795 27.0492 5.34381V11.4647C27.0492 12.4306 26.2663 13.2136 25.3004 13.2136H5.18878C4.22292 13.2136 3.43994 12.4306 3.43994 11.4647V5.34381Z" fill="black"/>
</svg>
