<svg width="22" height="28" viewBox="0 0 22 28" fill="none" xmlns="http://www.w3.org/2000/svg">
<path d="M10.7117 27.1859C9.26287 27.1859 8.0884 26.0115 8.0884 24.5627H13.3349C13.3349 26.0115 12.1604 27.1859 10.7117 27.1859ZM21.2047 23.251H0.218628V20.6278L2.84188 19.3162V12.1022C2.84188 7.56135 4.70571 4.61675 8.0884 3.81272V0.953369H13.3349V3.81272C16.7176 4.61543 18.5814 7.55873 18.5814 12.1022V19.3162L21.2047 20.6278V23.251ZM10.7117 5.87197C9.11103 5.76862 7.5674 6.48487 6.61281 7.77383C5.79639 9.06521 5.3958 10.576 5.46514 12.1022V20.6278H15.9582V12.1022C16.0274 10.576 15.6268 9.06524 14.8105 7.77383C13.8559 6.48487 12.3123 5.76862 10.7117 5.87197Z" fill="#C6C4C4"/>
</svg>
