<svg width="22" height="26" viewBox="0 0 22 26" fill="none" xmlns="http://www.w3.org/2000/svg">
<path d="M4.55109 6.82315C4.55109 3.20119 7.48727 0.265015 11.1092 0.265015C14.7312 0.265015 17.6674 3.20119 17.6674 6.82315C17.6674 10.4451 14.7312 13.3813 11.1092 13.3813C7.48727 13.3813 4.55109 10.4451 4.55109 6.82315ZM11.1092 10.758C13.2824 10.758 15.0441 8.99633 15.0441 6.82315C15.0441 4.64998 13.2824 2.88827 11.1092 2.88827C8.93606 2.88827 7.17435 4.64998 7.17435 6.82315C7.17435 8.99633 8.93606 10.758 11.1092 10.758Z" fill="#C6C4C4"/>
<path d="M3.68955 17.7663C1.72172 19.7341 0.616211 22.403 0.616211 25.1859H3.23947C3.23947 23.0988 4.0686 21.097 5.54447 19.6212C7.02034 18.1453 9.02204 17.3162 11.1092 17.3162C13.1964 17.3162 15.1981 18.1453 16.674 19.6212C18.1499 21.097 18.979 23.0988 18.979 25.1859H21.6023C21.6023 22.403 20.4967 19.7341 18.5289 17.7663C16.5611 15.7984 13.8922 14.6929 11.1092 14.6929C8.32631 14.6929 5.65737 15.7984 3.68955 17.7663Z" fill="#C6C4C4"/>
</svg>
