<svg width="10" height="11" viewBox="0 0 10 11" fill="none" xmlns="http://www.w3.org/2000/svg">
<path fill-rule="evenodd" clip-rule="evenodd" d="M9.87207 2.40696C9.87207 3.42557 9.17539 4.28147 8.23254 4.52414L8.23254 8.9651L7.13951 8.9651L7.13951 4.52414C6.19666 4.28146 5.49998 3.42557 5.49998 2.40696C5.49998 1.19964 6.4787 0.220917 7.68602 0.220917C8.89334 0.220917 9.87207 1.19964 9.87207 2.40696ZM6.593 2.40696C6.593 3.01062 7.08236 3.49999 7.68602 3.49999C8.28968 3.49999 8.77905 3.01062 8.77905 2.40696C8.77905 1.8033 8.28968 1.31394 7.68602 1.31394C7.08236 1.31394 6.593 1.8033 6.593 2.40696Z" fill="white"/>
<path fill-rule="evenodd" clip-rule="evenodd" d="M0.581373 7.87208C0.581373 6.85347 1.27805 5.99758 2.22091 5.7549L2.22091 1.31394L3.31393 1.31394L3.31393 5.7549C4.25679 5.99758 4.95347 6.85347 4.95347 7.87208C4.95347 9.0794 3.97474 10.0581 2.76742 10.0581C1.5601 10.0581 0.581373 9.0794 0.581373 7.87208ZM1.6744 7.87208C1.6744 8.47574 2.16376 8.9651 2.76742 8.9651C3.37108 8.9651 3.86044 8.47574 3.86044 7.87208C3.86044 7.26842 3.37108 6.77906 2.76742 6.77906C2.16376 6.77906 1.6744 7.26842 1.6744 7.87208Z" fill="white"/>
</svg>
