<svg width="23" height="15" viewBox="0 0 23 15" fill="none" xmlns="http://www.w3.org/2000/svg">
<path fill-rule="evenodd" clip-rule="evenodd" d="M21.2771 0.408813H19.9654C19.241 0.408813 18.6538 0.996049 18.6538 1.72044V13.0879C18.6538 13.8123 19.241 14.3995 19.9654 14.3995H21.2771C22.0015 14.3995 22.5887 13.8123 22.5887 13.0879V1.72044C22.5887 0.996049 22.0015 0.408813 21.2771 0.408813ZM13.8446 3.46925H15.1562C15.8806 3.46925 16.4678 4.05649 16.4678 4.78088V13.0879C16.4678 13.8122 15.8806 14.3995 15.1562 14.3995H13.8446C13.1202 14.3995 12.5329 13.8122 12.5329 13.0879V4.78088C12.5329 4.05649 13.1202 3.46925 13.8446 3.46925ZM9.03515 6.52977H7.72352C6.99913 6.52977 6.41189 7.11701 6.41189 7.8414V13.0879C6.41189 13.8123 6.99913 14.3995 7.72352 14.3995H9.03515C9.75954 14.3995 10.3468 13.8123 10.3468 13.0879V7.8414C10.3468 7.11701 9.75954 6.52977 9.03515 6.52977ZM2.91427 9.15303H1.60264C0.878251 9.15303 0.291016 9.74026 0.291016 10.4647V13.0879C0.291016 13.8123 0.878251 14.3995 1.60264 14.3995H2.91427C3.63866 14.3995 4.2259 13.8123 4.2259 13.0879V10.4647C4.2259 9.74026 3.63866 9.15303 2.91427 9.15303Z" fill="black"/>
</svg>
