<svg width="38" height="16" viewBox="0 0 38 16" fill="none" xmlns="http://www.w3.org/2000/svg">
<path d="M5.3604 15.2986C8.88604 15.2986 10.9803 12.5415 10.9803 7.87268C10.9803 6.11466 10.6441 4.63524 10.0004 3.49205C9.06856 1.71482 7.46425 0.75415 5.43725 0.75415C2.42076 0.75415 0.288086 2.78115 0.288086 5.62472C0.288086 8.29537 2.20942 10.2359 4.85124 10.2359C6.47477 10.2359 7.79088 9.47699 8.44413 8.16088H8.47295C8.47295 8.16088 8.51138 8.16088 8.52099 8.16088C8.5402 8.16088 8.60744 8.16088 8.60744 8.16088C8.60744 11.3311 7.40661 13.2236 5.37961 13.2236C4.18839 13.2236 3.26615 12.5703 2.94913 11.5232H0.480219C0.893305 13.8 2.82424 15.2986 5.3604 15.2986ZM5.44686 8.26655C3.85215 8.26655 2.71857 7.13297 2.71857 5.54787C2.71857 4.0012 3.90979 2.81958 5.45646 2.81958C7.00313 2.81958 8.19436 4.02041 8.19436 5.5863C8.19436 7.13297 7.03195 8.26655 5.44686 8.26655Z" fill="black"/>
<path d="M15.0347 15.1641C15.9473 15.1641 16.5717 14.5109 16.5717 13.6463C16.5717 12.7721 15.9473 12.1284 15.0347 12.1284C14.1317 12.1284 13.4976 12.7721 13.4976 13.6463C13.4976 14.5109 14.1317 15.1641 15.0347 15.1641ZM15.0347 7.95914C15.9473 7.95914 16.5717 7.31549 16.5717 6.45089C16.5717 5.57669 15.9473 4.93304 15.0347 4.93304C14.1317 4.93304 13.4976 5.57669 13.4976 6.45089C13.4976 7.31549 14.1317 7.95914 15.0347 7.95914Z" fill="black"/>
<path d="M25.564 14.9624H27.9368V12.3782H29.8101V10.2839H27.9368V1.09999H24.44C21.9903 4.78894 20.0401 7.87268 18.7913 10.1687V12.3782H25.564V14.9624ZM21.0873 10.1975C22.7012 7.35392 24.1422 5.07714 25.4679 3.11739H25.6024V10.3416H21.0873V10.1975Z" fill="black"/>
<path d="M35.0941 14.9624H37.5726V1.09999H35.1037L31.482 3.63615V6.01859L34.9308 3.59772H35.0941V14.9624Z" fill="black"/>
</svg>
