<svg width="21" height="16" viewBox="0 0 21 16" fill="none" xmlns="http://www.w3.org/2000/svg">
<path fill-rule="evenodd" clip-rule="evenodd" d="M10.1988 3.95521C13.1052 3.95533 15.9005 5.0721 18.0069 7.07469C18.1655 7.2293 18.419 7.22735 18.5753 7.07032L20.0915 5.54009C20.1706 5.46045 20.2147 5.35256 20.214 5.24031C20.2134 5.12806 20.168 5.0207 20.088 4.94199C14.5594 -0.356395 5.83729 -0.356395 0.308647 4.94199C0.228561 5.02064 0.183121 5.12797 0.182382 5.24022C0.181644 5.35247 0.225668 5.46039 0.304712 5.54009L1.82139 7.07032C1.97751 7.22759 2.23124 7.22954 2.38976 7.07469C4.49644 5.07197 7.29205 3.9552 10.1988 3.95521ZM10.1988 8.93375C11.7957 8.93365 13.3356 9.5272 14.5193 10.5991C14.6794 10.7512 14.9316 10.7479 15.0877 10.5916L16.6022 9.06141C16.6819 8.98115 16.7262 8.87226 16.725 8.75911C16.7239 8.64597 16.6774 8.538 16.596 8.45938C12.9914 5.10635 7.40923 5.10635 3.80461 8.45938C3.72319 8.538 3.67673 8.64602 3.67567 8.7592C3.6746 8.87239 3.71901 8.98126 3.79893 9.06141L5.31298 10.5916C5.46905 10.7479 5.72126 10.7512 5.88136 10.5991C7.06428 9.52791 8.60296 8.93441 10.1988 8.93375ZM13.2325 12.2834C13.2348 12.3969 13.1902 12.5063 13.1092 12.5858L10.4895 15.2296C10.4127 15.3073 10.308 15.351 10.1987 15.351C10.0895 15.351 9.98478 15.3073 9.90798 15.2296L7.28778 12.5858C7.20684 12.5062 7.16231 12.3968 7.16471 12.2833C7.16711 12.1698 7.21623 12.0624 7.30046 11.9863C8.97354 10.5712 11.4239 10.5712 13.097 11.9863C13.1812 12.0625 13.2302 12.1699 13.2325 12.2834Z" fill="black"/>
</svg>
